<svg width="244" height="143" viewBox="0 0 244 143" fill="none" xmlns="http://www.w3.org/2000/svg">
<path d="M2.78963 94.9838V26.7927H17.0478V42.6394C17.7968 40.4697 18.9463 38.8682 20.4961 37.835C22.0459 36.776 23.854 36.2465 25.9203 36.2465C29.9498 36.2465 32.8815 37.5121 34.7154 40.0435C36.5494 42.5748 37.4663 45.9714 37.4663 50.2334V94.9838H23.4407V51.1245C23.4407 49.8589 23.1695 48.8257 22.627 48.0249C22.1104 47.2242 21.2839 46.8238 20.1474 46.8238C19.1916 46.8238 18.4297 47.2371 17.8614 48.0637C17.319 48.8902 17.0478 49.8718 17.0478 51.0083V94.9838H2.78963ZM42.8519 33.3019V21.7559H56.7226V33.3019H42.8519ZM42.8519 94.9838V36.8664H56.7226V94.9838H42.8519ZM62.2243 94.9838V36.8664H75.7851V43.608C76.405 41.2317 77.464 39.4106 78.9621 38.145C80.4603 36.8793 82.6558 36.2465 85.5488 36.2465C87.8735 36.2465 89.8495 36.7889 91.4767 37.8738C93.1299 38.9328 94.2922 40.3405 94.9638 42.097C96.0228 40.1855 97.2627 38.7391 98.6833 37.7575C100.13 36.7502 102.183 36.2465 104.844 36.2465C108.072 36.2465 110.552 36.9439 112.283 38.3387C114.039 39.7077 115.253 41.6191 115.925 44.0729C116.622 46.501 116.971 49.3164 116.971 52.5193V94.9838H103.139V52.2869C103.139 48.5415 102.183 46.6689 100.272 46.6689C99.2645 46.6689 98.4896 47.0176 97.9471 47.715C97.4047 48.3865 97.0302 49.226 96.8235 50.2334C96.6169 51.2408 96.5136 52.2481 96.5136 53.2555V94.9838H82.6816V52.2869C82.6816 51.0729 82.5267 49.8589 82.2167 48.6448C81.9326 47.4308 81.1835 46.8238 79.9695 46.8238C78.9363 46.8238 78.1356 47.1984 77.5673 47.9474C76.9991 48.6965 76.6116 49.6264 76.405 50.7371C76.1983 51.8219 76.095 52.8939 76.095 53.9529V94.9838H62.2243ZM138.707 95.6037C134.574 95.6037 131.281 94.8288 128.827 93.279C126.373 91.7292 124.617 89.4949 123.558 86.5761C122.499 83.6573 121.969 80.1445 121.969 76.0375V52.6743C121.969 47.2759 123.519 43.1947 126.618 40.4309C129.718 37.6413 133.98 36.2465 139.404 36.2465C150.563 36.2465 156.142 41.7224 156.142 52.6743V56.8975C156.142 62.0118 156.09 65.4472 155.987 67.2037H135.84V78.4397C135.84 79.4729 135.904 80.4932 136.033 81.5005C136.163 82.4821 136.447 83.2957 136.886 83.9415C137.351 84.5872 138.087 84.9101 139.094 84.9101C140.541 84.9101 141.445 84.2902 141.806 83.0503C142.168 81.7847 142.349 80.1445 142.349 78.1297V72.5505H156.142V75.8438C156.142 80.1832 155.6 83.8252 154.515 86.7698C153.456 89.6886 151.648 91.8971 149.09 93.3952C146.559 94.8675 143.098 95.6037 138.707 95.6037ZM135.762 60.3071H142.349V52.4806C142.349 50.3884 142.091 48.8902 141.574 47.9862C141.057 47.0563 140.282 46.5914 139.249 46.5914C138.139 46.5914 137.273 47.0305 136.653 47.9087C136.059 48.7869 135.762 50.3109 135.762 52.4806V60.3071Z" fill="#FAFAFA"/>
<rect x="166.634" y="33.7238" width="77.3658" height="63.4797" rx="23.8049" fill="#FF5A5F"/>
<path d="M195.673 87.1598C193.332 87.1598 191.75 86.6674 190.927 85.6826C190.12 84.6817 189.716 83.1561 189.716 81.1059V58.4643H187.27V51.8535H189.716V44.1529H198.143V51.8535H200.589V58.4643H198.143V79.0718C198.143 79.6691 198.24 80.0888 198.434 80.331C198.627 80.5732 198.999 80.6942 199.548 80.6942C199.935 80.6942 200.282 80.6619 200.589 80.5974V86.506C200.395 86.5705 199.79 86.6916 198.773 86.8692C197.756 87.0629 196.722 87.1598 195.673 87.1598ZM207.999 86.7723L202.163 50.449H210.856L212.939 74.713L215.288 50.449H223.957L218.024 86.7723H207.999Z" fill="#FAFAFA"/>
<path d="M96.0228 108.636H93.2852C93.3447 108.904 93.434 109.737 93.4935 110.541C93.5828 112.177 93.6126 118.099 93.6126 119.408L95.874 120.569C95.8443 118.188 95.7847 112.445 95.874 110.511C95.874 110.154 95.9633 108.993 96.0228 108.636ZM80.1926 112.802L80.2521 115.093C84.7452 114.766 91.113 114.558 96.2311 114.558C100.605 114.558 103.283 114.617 104.95 114.707L104.979 112.505C103.581 112.475 99.8911 112.475 96.2608 112.475C91.6784 112.475 84.2394 112.743 80.1926 112.802ZM95.8145 121.432L94.1779 120.598C94.654 123.782 93.4638 125.33 91.6189 125.33C89.9823 125.33 88.5838 124.258 88.5838 122.384C88.5838 120.45 90.0418 119.23 91.6189 119.23C93.2257 119.23 94.535 120.36 94.535 123.038C94.535 127.948 91.3808 130.596 85.9652 131.876L87.9589 133.81C94.8623 131.757 96.8262 127.293 96.8262 123.247C96.8262 119.825 95.0706 117.266 91.6189 117.266C88.7921 117.266 86.3521 119.468 86.3521 122.413C86.3521 125.657 88.7623 127.413 91.2618 127.413C93.9696 127.413 95.8145 125.419 95.8145 121.432ZM113.549 111.642V114.082C115.9 114.26 118.459 114.409 121.435 114.409C124.172 114.409 127.445 114.201 129.469 114.052V111.612C127.296 111.82 124.291 112.029 121.435 112.029C118.459 112.029 115.692 111.91 113.549 111.642ZM114.769 123.633L112.329 123.425C112.061 124.615 111.734 126.014 111.734 127.561C111.734 131.281 115.215 133.274 121.286 133.274C125.511 133.274 129.29 132.828 131.433 132.233L131.403 129.704C129.141 130.418 125.333 130.864 121.226 130.864C116.435 130.864 114.144 129.317 114.144 127.026C114.144 125.925 114.382 124.824 114.769 123.633ZM130.302 108.339L128.695 109.023C129.498 110.124 130.51 111.939 131.105 113.159L132.742 112.445C132.117 111.225 131.046 109.41 130.302 108.339ZM133.575 107.149L131.998 107.833C132.831 108.934 133.813 110.63 134.468 111.939L136.075 111.195C135.509 110.094 134.349 108.25 133.575 107.149ZM143.514 111.463L140.627 111.404C140.806 112.088 140.806 113.368 140.806 114.052C140.806 115.778 140.865 119.408 141.133 121.967C141.966 129.674 144.644 132.471 147.471 132.471C149.494 132.471 151.28 130.745 153.095 125.716L151.22 123.604C150.447 126.579 149.048 129.644 147.531 129.644C145.388 129.644 143.96 126.341 143.454 121.372C143.246 118.932 143.216 116.194 143.246 114.35C143.275 113.576 143.365 112.148 143.514 111.463ZM158.987 112.267L156.695 113.07C159.522 116.552 161.337 122.681 161.843 128.037L164.254 127.085C163.807 122.056 161.665 115.718 158.987 112.267Z" fill="white"/>
<rect x="201.426" y="38.1936" width="41.8113" height="3.96748" rx="1.98374" transform="rotate(-120 201.426 38.1936)" fill="#FF5A5F"/>
<rect x="233.171" y="1.98376" width="41.8113" height="3.96748" rx="1.98374" transform="rotate(120 233.171 1.98376)" fill="#FF5A5F"/>
</svg>
